<?xml version="1.0" encoding="utf-8"?>
<!-- Generator: Adobe Illustrator 22.1.0, SVG Export Plug-In . SVG Version: 6.00 Build 0)  -->
<svg version="1.1" id="Layer_1" xmlns="http://www.w3.org/2000/svg" xmlns:xlink="http://www.w3.org/1999/xlink" width="26" height="26" x="0px" y="0px"
	 viewBox="0 0 32 32" style="enable-background:new 0 0 32 32;" xml:space="preserve">
<g>
	<path d="M29,27h3c0,0.7-0.1,1.3-0.4,1.9S31,30,30.5,30.5s-1,0.8-1.6,1.1C28.4,31.9,27.7,32,27,32H11c-0.7,0-1.3-0.1-1.9-0.4
		C8.5,31.3,8,31,7.5,30.5s-0.8-1-1.1-1.6C6.1,28.3,6,27.7,6,27V5H0c0-0.7,0.1-1.3,0.4-1.9C0.6,2.4,1,1.9,1.5,1.5
		C1.9,1,2.4,0.7,3,0.4C3.7,0.1,4.3,0,5,0h19c0.7,0,1.3,0.1,1.9,0.4S27,1,27.5,1.5s0.8,1,1.1,1.6C28.9,3.7,29,4.3,29,5V27z M11,30
		c0.4,0,0.8-0.1,1.2-0.2c0.4-0.2,0.7-0.4,0.9-0.6c0.3-0.3,0.5-0.6,0.6-0.9c0.2-0.4,0.2-0.8,0.2-1.2h13V5c0-0.4-0.1-0.8-0.2-1.2
		c-0.2-0.4-0.4-0.7-0.7-1c-0.3-0.3-0.6-0.5-1-0.6C24.8,2.1,24.4,2,24,2H5.1c0.4,0,0.8,0.1,1.1,0.3c0.4,0.2,0.7,0.4,0.9,0.6
		c0.3,0.3,0.5,0.6,0.6,0.9C7.9,4.2,8,4.6,8,5v22c0,0.4,0.1,0.8,0.2,1.2c0.2,0.4,0.4,0.7,0.6,0.9c0.3,0.3,0.6,0.5,1,0.6
		C10.2,29.9,10.6,30,11,30z M18,6v1h-8V6H18z M25,11v1H10v-1H25z M23,14v1H10v-1H23z M24,17v1H10v-1H24z M25,20v1H10v-1H25z M16,23
		v1h-6v-1H16z"/>
</g>
</svg>
