<svg xmlns="http://www.w3.org/2000/svg" viewBox="0 0 16 16"><style>.icon-canvas-transparent{opacity:0;fill:#f6f6f6}.icon-vs-out{fill:#f6f6f6}.icon-vs-bg{fill:#424242}.icon-vs-fg{fill:#f0eff1}.icon-vs-action-blue{fill:#00539c}</style><path class="icon-canvas-transparent" d="M16 16H0V0h16v16z" id="canvas"/><path class="icon-vs-out" d="M16 0v12h-2v2h-2v2H1V4h2V2h2V0h11z" id="outline"/><path class="icon-vs-bg" d="M4 3h9v10h-1V4H4V3zM2 6h8v9h1V5H2v1zm4-5v1h8v9h1V1H6z" id="iconBg"/><path class="icon-vs-fg" d="M2 6v9h8V6H2zm6.729 5.061L6.527 8.858v5.159h-1v-5.17l-2.214 2.214-.707-.707 3.408-3.408.007.007.007-.007 3.408 3.408-.707.707z" id="iconFg"/><path class="icon-vs-action-blue" d="M8.729 11.061L6.527 8.858v5.159h-1v-5.17l-2.214 2.214-.707-.707 3.408-3.408.007.007.007-.007 3.408 3.408-.707.707z" id="colorAction"/></svg>