<svg xmlns="http://www.w3.org/2000/svg" viewBox="0 0 16 16"><style>.st0{opacity:0}.st0,.st1{fill:#f6f6f6}.st2{fill:#424242}.st3{fill:#00539c}.st4{fill:#f0eff1}</style><g id="outline"><path class="st0" d="M0 0h16v16H0z"/><path class="st1" d="M13.571 5H8.424l1.49-1.481L6.416 0h-4.82l1.988 2H3.5C1.57 2 0 3.57 0 5.5S1.57 9 3.5 9H5v3H4v1c0 .519.143 1.039.413 1.503A3.005 3.005 0 0 0 7 16h4.215A2.789 2.789 0 0 0 14 13.214V10h2V7.429A2.432 2.432 0 0 0 13.571 5zm-10.565.578A.503.503 0 0 1 3.5 5h.087l-.581.578zM5 7h.223C5.083 7.355 5 7.739 5 8.143V7z"/></g><path class="st2" d="M13.571 6H8.143A2.142 2.142 0 0 0 6 8.143V13H5c0 .366.105.705.277 1 .347.596.985 1 1.723 1h4.215c.986 0 1.785-.8 1.785-1.786V9h2V7.429A1.43 1.43 0 0 0 13.571 6zM12 13.214a.786.786 0 0 1-.785.786H11a1 1 0 0 1-1-1H7V8.143C7 7.513 7.513 7 8.143 7H12v6.214z" id="icon_x5F_bg"/><path class="st3" d="M4 6l2.013-2H3.5a1.501 1.501 0 0 0 0 3H4v1h-.5a2.5 2.5 0 1 1 0-5h2.488L4 1h2l2.5 2.515L6 6H4z" id="color_x5F_action"/><path class="st4" d="M7 8.143V13h3a1 1 0 0 0 1 1h.215a.786.786 0 0 0 .785-.786V7H8.143C7.513 7 7 7.513 7 8.143z" id="icon_x5F_fg"/></svg>