<svg xmlns="http://www.w3.org/2000/svg" viewBox="0 0 16 16"><style>.icon-canvas-transparent{opacity:0;fill:#f6f6f6}.icon-vs-out{fill:#f6f6f6}.icon-js-orange{fill:#f16421}</style><path class="icon-canvas-transparent" d="M16 16H0V0h16v16z" id="canvas"/><path class="icon-vs-out" d="M10.018 13c-.94 0-1.769-.159-2.431-.474L7 12.255v-.341c0 .013-.008.024-.02.037C6.294 12.648 5.344 13 4.138 13a4.373 4.373 0 0 1-1.48-.246L2 12.517V8.498l1.552 1.028a.804.804 0 0 0 .468.137c.086 0 .007-.013.015-.016C4.032 9.644 4 9.508 4 9.088V4h4v.876c.057-.047.117-.093.179-.138C8.86 4.248 9.742 4 10.8 4c.869 0 1.755.104 2.363.316l.837.235v3.896l-.445-.167c.403.481.529 1.063.529 1.701 0 .853-.381 1.59-1.023 2.132-.705.597-1.729.887-3.043.887z" id="outline"/><path class="icon-js-orange" d="M3 10.359c.304.201.644.303 1.021.303.809 0 1.213-.525 1.213-1.574V5H7v4.15c0 .911-.239 1.611-.719 2.102-.49.498-1.202.748-2.134.748-.417 0-.798-.062-1.147-.187v-1.454zm9.47-1.597c-.293-.273-.779-.555-1.462-.845-.459-.192-.771-.355-.932-.491a.681.681 0 0 1-.256-.543c0-.204.098-.369.292-.495.193-.126.455-.188.784-.188.661 0 1.248.157 1.767.472V5.26C12.167 5.086 11.546 5 10.8 5c-.85 0-1.527.184-2.037.55C8.254 5.916 8 6.403 8 7.011c0 .834.585 1.495 1.755 1.983.515.211.868.386 1.061.524.241.18.363.377.363.594a.57.57 0 0 1-.245.468c-.197.148-.488.222-.873.222-.743 0-1.42-.23-2.029-.689v1.512c.529.249 1.19.375 1.986.375 1.058 0 1.843-.217 2.356-.651A1.71 1.71 0 0 0 13 9.981c0-.479-.176-.885-.53-1.219z" id="iconBg"/></svg>