<svg xmlns="http://www.w3.org/2000/svg" viewBox="0 0 16 16"><style>.icon-canvas-transparent{opacity:0;fill:#f6f6f6}.icon-vs-out{fill:#f6f6f6}.icon-vs-bg{fill:#424242}.icon-vs-fg{fill:#f0eff1}.icon-folder{fill:#dcb67a}.st0{fill:#f0eff1}</style><path class="icon-canvas-transparent" d="M0 0h16v16H0V0z" id="canvas"/><path class="icon-vs-out" d="M13.496 2H10.61l-1-2H1.5C.673 0 0 .673 0 1.5v10c0 .1.011.198.03.293V16H9v-3h4.496c.827 0 1.5-.673 1.5-1.5v-8c0-.827-.673-1.5-1.5-1.5z" id="outline"/><g id="iconBg"><path class="icon-folder" d="M13.496 3H9.992l-1-2H1.5a.5.5 0 0 0-.5.5v5.592h8V12h4.496a.5.5 0 0 0 .5-.5v-8a.5.5 0 0 0-.5-.5zM2 3V2h6.374l.5 1H2z"/><path class="icon-vs-bg" d="M1 8v7h7V8H1zm6 6H2V9h5v5zm-4.213-1.465L4.323 11H3.03v-1h3v3h-1v-1.293l-1.535 1.535-.708-.707z"/></g><g id="iconFg"><path class="st0" d="M2 2h6.374l.5 1H2V2zm.03 7v5h5V9h-5zm4 4h-1v-1.293l-1.535 1.535-.707-.707L4.323 11H3.03v-1h3v3z"/><path class="icon-vs-fg" d="M2.03 14h5V9h-5v5zm1-3v-1h3v3h-1v-1.293l-1.535 1.535-.707-.707L4.323 11H3.03z"/></g></svg>