<svg xmlns="http://www.w3.org/2000/svg" viewBox="0 0 16 16"><style>.icon-vs-out{fill:#f6f6f6}.icon-vs-bg{fill:#424242}.icon-vs-fg{fill:#f0eff1}.icon-folder{fill:#dcb67a}.icon-canvas-transparent_x0020_{opacity:0;fill:#f6f6f6}.st0{fill:#f0eff1}</style><path class="icon-canvas-transparent_x0020_" d="M0 0h16v16H0V0z" id="canvas"/><path class="icon-vs-out" d="M15 6V4c0-1.299-1.03-2-2-2h-2.884l-1-2H2c-.995 0-2 .697-2 2v14h8.97v-3h4.706L16 7.196V6h-1z" id="outline"/><g id="iconBg"><path class="icon-folder" d="M14 7.031v-3c0-1-1.236-1-1-1H9.5l-1-2H2s-1 0-1 1V7h1V2.031h6l1 2h4v3L8.97 7v5.031H13l2-5h-1z"/><path class="icon-vs-bg" d="M1 8v7h7V8H1zm6 6H2V9h5v5zm-4.242-1.465L4.293 11H3v-1h3v3H5v-1.293l-1.535 1.535-.707-.707z"/></g><g id="iconFg"><path class="st0" d="M2 9v5h5V9H2zm4 4H5v-1.293l-1.535 1.535-.707-.707L4.293 11H3v-1h3v3z"/><path class="icon-vs-fg" d="M2 14h5V9H2v5zm1-3v-1h3v3H5v-1.293l-1.535 1.535-.707-.707L4.293 11H3z"/></g></svg>