<svg xmlns="http://www.w3.org/2000/svg" viewBox="0 0 16 16"><style>.st0{opacity:0}.st0,.st1{fill:#f6f6f6}.st2{fill:#424242}.st3{fill:#c27d1a}.st4{fill:#f0eff1}</style><g id="outline"><path class="st0" d="M0 0h16v16H0z"/><path class="st1" d="M13.571 5H9V3h-.879l.621-.621L6.621.257 6 .878V0H3v.878L2.379.257.257 2.379.878 3H0v3h.878l-.621.621 2.122 2.121L3 8.121V9h2v3H4v1c0 1.654 1.346 3 3 3h4.214A2.79 2.79 0 0 0 14 13.214V10h2V7.429C16 6.089 14.91 5 13.571 5z"/></g><g id="icon_x5F_bg"><path class="st2" d="M7 8.363l-.379.379-.619-.619-.002.02V12h1V8.363z"/><path class="st2" d="M13.571 6h-5.45l.621.621L8.363 7H12v6a1 1 0 1 1-2 0H5a2 2 0 0 0 2 2h4.214C12.2 15 13 14.2 13 13.214V9h2V7.429A1.43 1.43 0 0 0 13.571 6z"/></g><path class="st3" d="M8 4H5.707l1.621-1.621-.707-.708L5 3.292V1H4v2.292L2.379 1.671l-.708.708L3.292 4H1v1h2.292L1.671 6.621l.708.707L4 5.707V8h1V5.707l1.621 1.621.707-.707L5.707 5H8V4zM5 5H4V4h1v1z" id="color_x5F_action"/><path class="st4" d="M8.363 7L7 8.363V13h3.028c0 .553.435 1 .985 1A.988.988 0 0 0 12 13V7H8.363z" id="icon_x5F_fg"/></svg>