<svg xmlns="http://www.w3.org/2000/svg" width="16" height="16"><style type="text/css">.icon-canvas-transparent{opacity:0;fill:#F6F6F6;} .icon-vs-out{fill:#F6F6F6;} .icon-vs-bg{fill:#424242;}</style><path class="icon-canvas-transparent" d="M16 16h-16v-16h16v16z" id="canvas"/><polygon class="icon-vs-out" points="9,3 9,6 7,6 7,5.535 7.834,4.979 3.995,2.543 3.582,3.438 3.238,2.548 0,4.424 0,12 7,12 7,9 9,9 9,12 16,12 16,3" id="outline"/><path class="icon-vs-bg" d="M10 4v7h5v-7h-5zm-3 4h2v-1h-2v1zm-1-3l-1.576-1-.924 2-.773-2-1.727 1 1.5 1h-1.5v5h5v-5h-1.5l1.5-1zm-3 5h-1v-1h1v1zm0-2h-1v-1h1v1zm2 2h-1v-1h1v1zm0-3v1h-1v-1h1z" id="iconBg"/></svg>