<svg xmlns="http://www.w3.org/2000/svg" width="16" height="16"><style type="text/css">.icon-canvas-transparent{opacity:0;fill:#F6F6F6;} .icon-vs-out{fill:#F6F6F6;} .icon-vs-bg{fill:#424242;} .icon-vs-fg{fill:#F0EFF1;} .icon-vs-action-blue{fill:#00539C;}</style><path class="icon-canvas-transparent" d="M16 16h-16v-16h16v16z" id="canvas"/><path class="icon-vs-out" d="M16 7.429v2.571h-2v3.214c0 1.536-1.249 2.786-2.785 2.786h-4.215c-1.059 0-2.05-.573-2.587-1.497-.27-.464-.413-.984-.413-1.503v-1h1v-3.164c-.321.083-.653.143-1 .143-2.206 0-4-1.794-4-4 0-1.86 1.277-3.428 3-3.874v-1.105h1.57l3.001 2.553-.987.789.939-.383.333 1.021c.138.42.196.753.179 1.031l.108-.011h5.429c1.338 0 2.428 1.089 2.428 2.429z" id="outline"/><path class="icon-vs-bg" d="M13.571 6h-5.428l-.284.029c-.28 1.024-.961 1.877-1.859 2.399v4.572h-1c0 .366.105.705.277 1 .347.596.985 1 1.723 1h4.215c.986 0 1.785-.8 1.785-1.786v-4.214h2v-1.571c0-.789-.64-1.429-1.429-1.429zm-1.571 7.214c0 .434-.352.786-.785.786h-.215c-.553 0-1-.447-1-1h-3v-4.857c0-.63.513-1.143 1.143-1.143h3.857v6.214z" id="iconBg"/><path class="icon-vs-fg" d="M8.143 7h3.857v6.214c0 .434-.352.786-.785.786h-.215c-.553 0-1-.447-1-1h-3v-4.857c0-.63.513-1.143 1.143-1.143z" id="iconFg"/><g id="colorAction"><path class="icon-vs-action-blue" d="M7 4.979c0 1.657-1.343 3-3 3s-3-1.343-3-3c0-1.656 1.343-3 3-3v-1.15l2 1.701-2 1.6v-1.15c-1.104 0-2.15.896-2.15 2s1.045 2.15 2.15 2.15 2-1.046 2-2.15c0-.162.1-.193.063-.344l.844-.344c.229.702.093.813.093.687z"/></g></svg>