<svg xmlns="http://www.w3.org/2000/svg" viewBox="0 0 16 16"><style>.st0{opacity:0}.st0,.st1{fill:#f6f6f6}.st2{fill:#424242}.st3{fill:#f0eff1}</style><g id="outline"><path class="st0" d="M0 0h16v16H0z"/><path class="st1" d="M13.571 5H8.143c-.037 0-.072.01-.108.011.017-.278-.041-.611-.178-1.03l-.334-1.022-.939.383.987-.789L4.57 0H3v1.105a4.008 4.008 0 0 0-3 3.874c0 2.206 1.794 4 4 4 .347 0 .679-.059 1-.143V12H4v1c0 .519.143 1.039.413 1.503A3.005 3.005 0 0 0 7 16h4.215A2.789 2.789 0 0 0 14 13.214V10h2V7.429C16 6.089 14.91 5 13.571 5z"/></g><g id="icon_x5F_bg"><path class="st2" d="M6.906 4.291l-.843.344c.037.15-.063.181-.063.344 0 1.104-.896 2.15-2 2.15s-2.15-1.046-2.15-2.15c0-1.104 1.045-2 2.15-2v1.15l2-1.6L4 .828v1.15a3 3 0 1 0 3 3c0 .127.136.016-.094-.687zM13.571 6H8.143c-.097 0-.19.016-.284.029A4.006 4.006 0 0 1 6 8.428V13H5c0 .366.105.705.277 1 .347.596.985 1 1.723 1h4.215c.986 0 1.785-.8 1.785-1.786V9h2V7.429A1.43 1.43 0 0 0 13.571 6zM12 13.214a.786.786 0 0 1-.785.786H11a1 1 0 0 1-1-1H7V8.143C7 7.513 7.513 7 8.143 7H12v6.214z"/></g><path class="st3" d="M7 8.143V13h3a1 1 0 0 0 1 1h.215a.786.786 0 0 0 .785-.786V7H8.143C7.513 7 7 7.513 7 8.143z" id="icon_x5F_fg"/></svg>