<svg xmlns="http://www.w3.org/2000/svg" viewBox="0 0 16 16"><style>.st0{opacity:0;fill:#f0eff1}.st1{fill:#f6f6f6}.st2{fill:none}.st3{fill:#424242}.st4{fill:#f0eff1}</style><g id="outline"><path class="st0" d="M0 0h16v16H0z"/><path class="st1" d="M12 4.051V2.429C12 1.089 10.91 0 9.571 0H4.143c-.337 0-.655.067-.959.165-.088.028-.18.046-.264.082-.274.116-.52.281-.748.467A3.126 3.126 0 0 0 1 3.143V7H0v1c0 .251.04.491.099.725.011.042.026.082.038.123.063.214.149.416.256.608.008.015.011.032.02.047.005.009.014.016.019.025.255.427.61.783 1.037 1.038.038.023.468.231.658.289.053.017.625.145.873.145h3.585l-2.999 3 2 2h.828l3.351-3.35c.548.231 1.135.35 1.735.35 2.481 0 4.5-2.019 4.5-4.5 0-2.31-1.756-4.197-4-4.449z"/></g><g id="icon_x5F_bg"><circle class="st2" cx="11.5" cy="8.5" r="2.5"/><path class="st1" d="M9.571 0H4.143A3.147 3.147 0 0 0 1 3.143V7H0v1c0 .519.143 1.039.413 1.503A3.005 3.005 0 0 0 3 11h4.215A2.789 2.789 0 0 0 10 8.214V5h2V2.429C12 1.089 10.91 0 9.571 0z"/><path class="st3" d="M11.5 5A3.5 3.5 0 0 0 8 8.5c0 .711.215 1.369.579 1.922L5 14l1 1 3.578-3.578A3.488 3.488 0 0 0 11.5 12a3.5 3.5 0 1 0 0-7zm0 6a2.5 2.5 0 1 1 0-5 2.5 2.5 0 0 1 0 5z"/><path class="st3" d="M7.276 9.994A4.395 4.395 0 0 1 7.05 9H7a1 1 0 0 1-1-1H3V3.143C3 2.513 3.513 2 4.143 2H8v3.706c.288-.36.616-.687 1-.945V4h2V2.429A1.43 1.43 0 0 0 9.571 1H4.143A2.142 2.142 0 0 0 2 3.143V8H1c0 .366.106.705.277 1 .347.596.985 1 1.723 1h4.215c.021 0 .04-.005.061-.006z"/></g><g id="icon_x5F_fg"><path class="st4" d="M7 9h.05C7.031 8.833 7 8.669 7 8.5c0-1.061.384-2.024 1-2.794V2H4.143C3.513 2 3 2.513 3 3.143V8h3a1 1 0 0 0 1 1z"/><circle class="st4" cx="11.5" cy="8.5" r="2.5"/></g></svg>