<svg xmlns="http://www.w3.org/2000/svg" viewBox="0 0 16 16"><style>.st0{fill:#f6f6f6}.st1{fill:#424242}.st2{fill:#f0eff1}.st3{fill:#fc0}</style><g id="outline"><path class="st0" d="M8.309 15.5l-.5-1H3.5c-1.654 0-3-1.346-3-3v-1h2V4C2.5 2.07 4.07.5 6 .5h7c1.379 0 2.5 1.122 2.5 2.5v1.5h-3v3.618L15.441 14l-.75 1.5H8.309z"/><path class="st0" d="M13 1c1.102 0 2 .897 2 2v1h-3v4.236l.106.211L14.882 14l-.5 1H8.618l-.224-.447L8.118 14H3.5A2.503 2.503 0 0 1 1 11.5V11h2V4c0-1.654 1.346-3 3-3h7m0-1H6C3.794 0 2 1.795 2 4v6H0v1.5C0 13.43 1.57 15 3.5 15h4l.5 1h7l1-2-3-6V5h3V3c0-1.654-1.346-3-3-3z"/></g><g id="icon_x5F_bg"><path class="st1" d="M13 1H6a3 3 0 0 0-3 3v6h2V4a1 1 0 0 1 1-1h5v4h1V4h3V3a2 2 0 0 0-2-2zM8 11H1v.5A2.5 2.5 0 0 0 3.5 14H7l1.057-2.113A1.454 1.454 0 0 1 8 11.5V11z"/></g><path class="st2" d="M8 11.5c0 .135.023.263.057.387L10.5 7h.5V3H6a1 1 0 0 0-1 1v7h3v.5z" id="icon_x5F_fg"/><path class="st3" d="M11.891 8.016h-.781l-3.016 6 .515.984h5.766l.484-1-2.968-5.984zM12 14h-1v-1h1v1zm0-2h-1v-2h1v2z" id="not_x5F_bg"/><path d="M12 12h-1v-2h1v2zm0 1h-1v1h1v-1z" id="not_x5F_fg"/></svg>