<svg xmlns="http://www.w3.org/2000/svg" viewBox="0 0 16 16"><style>.icon-canvas-transparent{opacity:0;fill:#f6f6f6}.icon-vs-out{fill:#f6f6f6}.icon-vs-bg{fill:#424242}.icon-vs-fg{fill:#f0eff1}</style><path class="icon-canvas-transparent" d="M16 0v16H0V0h16z" id="canvas"/><path class="icon-vs-out" d="M16 13c0 1.654-1.346 3-3 3H3c-.801 0-1.554-.313-2.121-.879S0 13.801 0 13c0-.801.312-1.555.879-2.121A2.989 2.989 0 0 1 2 10.17V3c0-1.654 1.346-3 3-3h8c1.654 0 3 1.346 3 3s-1.346 3-3 3v2.776c.38.342.677.773.844 1.266l.621.35A3.006 3.006 0 0 1 16 13z" id="outline"/><path class="icon-vs-fg" d="M14 3c0 .551-.449 1-1 1h-1V3c0-.551.449-1 1-1s1 .449 1 1zM4 3v8c0-1.654 1.346-3 3-3h4V3c0-.366.106-.705.278-1H5c-.551 0-1 .449-1 1zm1.537 10.607A2.99 2.99 0 0 1 4.198 12H3a.993.993 0 0 0-.707.293c-.189.189-.293.44-.293.707s.104.518.293.707c.189.189.44.293.707.293h3.175c-.005-.015-.014-.029-.019-.044l-.619-.349z" id="iconFg"/><g id="iconBg"><path class="icon-vs-bg" d="M3 14a.993.993 0 0 1-.707-.293C2.104 13.518 2 13.267 2 13s.104-.518.293-.707A.993.993 0 0 1 3 12h1.198A2.918 2.918 0 0 1 4 11V3c0-.551.449-1 1-1h6.278A1.978 1.978 0 0 0 11 3v5c.351 0 .686.064 1 .176V5h1c1.103 0 2-.897 2-2s-.897-2-2-2H5c-1.103 0-2 .897-2 2v8c-.534 0-1.036.208-1.414.586C1.208 11.964 1 12.466 1 13c0 .534.208 1.036.586 1.414.378.378.88.586 1.414.586h3.777a3.004 3.004 0 0 1-.602-1H3zm9-11c0-.551.449-1 1-1s1 .449 1 1-.449 1-1 1h-1V3zm0 8c0-.551-.448-1-1-1H7c-.551 0-1 .449-1 1a.99.99 0 0 0 .302.712 2.96 2.96 0 0 0-.275 1.024A1.991 1.991 0 0 1 5 11c0-1.103.897-2 2-2h4c1.102 0 2 .897 2 2s-.898 2-2 2h-1l1-1c.552 0 1-.449 1-1zm3 2c0 1.102-.898 2-2 2H9c-1.103 0-2-.898-2-2 0-1.103.897-2 2-2h1l-1 1a1.001 1.001 0 0 0 0 2h4a1 1 0 0 0 1-1 .995.995 0 0 0-.302-.713 2.96 2.96 0 0 0 .275-1.024c.61.344 1.027.989 1.027 1.737z"/></g></svg>