<svg xmlns="http://www.w3.org/2000/svg" viewBox="0 0 16 16"><style>.st0{opacity:0;fill:#fff;stroke:#231f20;stroke-miterlimit:10}.st1{fill:#f6f6f6}.st2{fill:#424242}.st3{fill:#f0eff1}</style><g id="outline"><path class="st0" d="M0 0h16v16H0z"/><path class="st1" d="M13.571 1H8.143a3.139 3.139 0 0 0-3.129 3.013A3.14 3.14 0 0 0 2 7.143V11H1v1c0 .519.143 1.039.413 1.503A3.005 3.005 0 0 0 4 15h4.215A2.789 2.789 0 0 0 11 12.214V12h.215A2.789 2.789 0 0 0 14 9.214V6h2V3.429C16 2.089 14.91 1 13.571 1z"/></g><g id="icon_x5F_bg"><path class="st2" d="M12 9.214a.787.787 0 0 1-.785.786H11v1h.215C12.201 11 13 10.2 13 9.214V9h-1v.214zM13.571 2H8.143a2.137 2.137 0 0 0-2.129 2h1.015c.073-.56.534-1 1.114-1H12v1.475c.603.442 1 1.15 1 1.954V5h2V3.429A1.43 1.43 0 0 0 13.571 2z"/><path class="st2" d="M10.571 5H5.143A2.142 2.142 0 0 0 3 7.143V12H2c0 .366.105.705.277 1 .347.596.985 1 1.723 1h4.215C9.201 14 10 13.2 10 12.214V8h2V6.429A1.43 1.43 0 0 0 10.571 5zM9 12.214a.786.786 0 0 1-.785.786H8a1 1 0 0 1-1-1H4V7.143C4 6.513 4.513 6 5.143 6H9v6.214z"/></g><g id="icon_x5F_fg"><path class="st3" d="M10.571 4c.536 0 1.027.18 1.429.475V3H8.143c-.579 0-1.04.44-1.114 1h3.542zM11 9v1h.215A.787.787 0 0 0 12 9.214V9h-1zM4 7.143V12h3a1 1 0 0 0 1 1h.215A.786.786 0 0 0 9 12.214V6H5.143C4.513 6 4 6.513 4 7.143z"/></g></svg>