<svg xmlns="http://www.w3.org/2000/svg" viewBox="0 0 16 16"><style>.icon-canvas-transparent{opacity:0;fill:#f6f6f6}.icon-vs-out{fill:#f6f6f6}.icon-vs-bg{fill:#424242}.icon-vs-fg{fill:#f0eff1}.icon-vs-red{fill:#e51400}.icon-white{fill:#fff}</style><path class="icon-canvas-transparent" d="M16 16H0V0h16v16z" id="canvas"/><path class="icon-vs-out" d="M16 11.5a4.5 4.5 0 0 1-4.5 4.5 4.48 4.48 0 0 1-.825-.083c-.218.05-.442.083-.675.083H3c-.801 0-1.554-.313-2.121-.879S0 13.801 0 13c0-.801.312-1.555.879-2.121A2.989 2.989 0 0 1 2 10.17V3c0-1.654 1.346-3 3-3h8c1.654 0 3 1.346 3 3s-1.346 3-3 3v1.276c1.744.619 3 2.268 3 4.224z" id="outline"/><path class="icon-vs-bg" d="M7.76 14H3a.993.993 0 0 1-.707-.293C2.104 13.518 2 13.267 2 13s.104-.518.293-.707A.993.993 0 0 1 3 12h4.05c-.018-.166-.05-.329-.05-.5s.032-.334.05-.5H4V3c0-.551.449-1 1-1h6.278A1.978 1.978 0 0 0 11 3v4.05c.166-.018.329-.05.5-.05s.334.032.5.05V5h1c1.103 0 2-.897 2-2s-.897-2-2-2H5c-1.103 0-2 .897-2 2v8c-.534 0-1.036.208-1.414.586C1.208 11.964 1 12.466 1 13c0 .534.208 1.036.586 1.414.378.378.88.586 1.414.586h5.703a4.5 4.5 0 0 1-.943-1zM12 3c0-.551.449-1 1-1s1 .449 1 1-.449 1-1 1h-1V3z" id="iconBg"/><path class="icon-vs-fg" d="M14 3c0 .551-.449 1-1 1h-1V3c0-.551.449-1 1-1s1 .449 1 1zm-3 4.05V3c0-.366.106-.705.278-1H5c-.551 0-1 .449-1 1v8h3.05A4.474 4.474 0 0 1 11 7.05zM7.05 12H3a.993.993 0 0 0-.707.293c-.189.189-.293.44-.293.707s.104.518.293.707c.189.189.44.293.707.293h4.76a4.478 4.478 0 0 1-.71-2z" id="iconFg"/><path class="icon-vs-red" d="M11.5 8a3.5 3.5 0 1 0 0 7 3.5 3.5 0 0 0 0-7zm2.5 4H9v-1h5v1z" id="notificationBg"/><path class="icon-white" d="M14 11v1H9v-1h5z" id="notificationFg"/></svg>