<svg xmlns="http://www.w3.org/2000/svg" viewBox="0 0 16 16"><style>.st0{fill:#f6f6f6}.st1{fill:#424242}.st2{fill:#f0eff1}.st3{fill:#e51400}.st4{fill:#fff}</style><path class="st0" d="M16 5V3c0-1.654-1.346-3-3-3H6C3.794 0 2 1.795 2 4v6H0v1.5C0 13.43 1.57 15 3.5 15h5.203c.771.616 1.734 1 2.797 1a4.5 4.5 0 0 0 4.5-4.5c0-1.957-1.256-3.604-3-4.225V5h3z" id="outline"/><g id="icon_x5F_bg"><path class="st1" d="M13 1H6a3 3 0 0 0-3 3v6h2V4a1 1 0 0 1 1-1h5v4.05c.166-.018.329-.05.5-.05s.334.032.5.05V4h3V3a2 2 0 0 0-2-2zM7.05 11H1v.5A2.5 2.5 0 0 0 3.5 14h4.26A4.476 4.476 0 0 1 7 11.5c0-.171.032-.334.05-.5z"/></g><path class="st2" d="M11 7.05V3H6a1 1 0 0 0-1 1v7h2.05A4.472 4.472 0 0 1 11 7.05z" id="icon_x5F_fg"/><path class="st3" d="M11.5 8a3.5 3.5 0 1 0 0 7 3.5 3.5 0 0 0 0-7zm1.854 4.646l-.707.707-1.147-1.146-1.146 1.147-.707-.707 1.147-1.146-1.147-1.146.707-.707 1.146 1.147 1.146-1.147.707.707-1.146 1.145 1.147 1.146z" id="not_x5F_bg"/><path class="st4" d="M13.354 10.354l-.708-.708-1.146 1.147-1.146-1.147-.708.708 1.147 1.146-1.147 1.146.708.708 1.146-1.147 1.146 1.147.708-.708-1.147-1.146z" id="not_x5F_fg"/></svg>