<svg xmlns="http://www.w3.org/2000/svg" viewBox="0 0 16 16"><style>.st0{opacity:0}.st0,.st1{fill:#f6f6f6}.st2{fill:#424242}.st3{fill:#f0eff1}</style><g id="outline"><path class="st0" d="M0 0h16v16H0z"/><path class="st1" d="M16 0H4v4.015a3.138 3.138 0 0 0-3 3.128V11H0v1c0 1.654 1.346 3 3 3h4.214A2.789 2.789 0 0 0 10 12.214V10h6V0z"/></g><g id="icon_x5F_bg"><path class="st2" d="M5 1v3h1V3h8v5h-2v1h3V1z"/><path class="st2" d="M9.571 5H4.143A2.142 2.142 0 0 0 2 7.143V12H1c0 .366.105.705.277 1 .347.596.985 1 1.723 1h4.215C8.201 14 9 13.2 9 12.214V8h2V6.429A1.43 1.43 0 0 0 9.571 5zM8 12.214a.786.786 0 0 1-.785.786H7a1 1 0 0 1-1-1H3V7.143C3 6.513 3.513 6 4.143 6H8v6.214z"/></g><g id="icon_x5F_fg"><path class="st3" d="M6 3v1h3.571A2.43 2.43 0 0 1 12 6.429V8h2V3H6zM3 7.143V12h3a1 1 0 0 0 1 1h.215A.786.786 0 0 0 8 12.214V6H4.143C3.513 6 3 6.513 3 7.143z"/></g></svg>