<svg xmlns="http://www.w3.org/2000/svg" viewBox="0 0 16 16"><style>.st0{opacity:0}.st0,.st1{fill:#f6f6f6}.st2{fill:#424242}.st3{fill:#f0eff1}</style><g id="outline"><path class="st0" d="M0 0h16v16H0z"/><path class="st1" d="M13 0H6C3.794 0 2 1.794 2 4v3.764L.882 10H0v1.5c0 .075.018.146.022.22L0 11.764V13h.351c.222.464.543.865.936 1.189L.382 16h2.032l1.008-1.008c.027.001.051.008.078.008h6c1.93 0 3.5-1.57 3.5-3.5V5h3V3c0-1.654-1.346-3-3-3z"/></g><g id="icon_x5F_bg"><path class="st2" d="M13 1H6a3 3 0 0 0-3 3v3h2V4a1 1 0 0 1 1-1h5v8.5a1.5 1.5 0 0 1-3 0V11H7v.414L4.414 14H9.5a2.5 2.5 0 0 0 2.5-2.5V4h3V3a2 2 0 0 0-2-2z"/><path class="st2" d="M6 11H3l3-3H3l-2 4h2.5L2 15z"/></g><path class="st3" d="M6 3a1 1 0 0 0-1 1v3h2v1.414L5.414 10H7v1h1v.5a1.5 1.5 0 0 0 3 0V3H6z" id="icon_x5F_fg"/></svg>