<svg xmlns="http://www.w3.org/2000/svg" viewBox="0 0 16 16"><style>.st0{fill:#f6f6f6}.st1{fill:#424242}.st2{fill:#f0eff1}</style><path class="st0" d="M13 0H6C3.794 0 2 1.794 2 4v2h-.5L0 8v1h.605a4.686 4.686 0 0 0-.414 1H0v1.5c0 .391.079.761.198 1.112.478 1.681 1.839 3.03 3.604 3.388H8.5l.728-1H9.5c1.93 0 3.5-1.57 3.5-3.5V5h3V3c0-1.654-1.346-3-3-3z" id="outline"/><g id="icon_x5F_bg"><path class="st1" d="M5 9.5V7H2.5l-1 1h1.519A3.738 3.738 0 0 0 1 11.313a3.765 3.765 0 0 0 3 3.688v-1A2.564 2.564 0 0 1 4 9v1.5l1-1z"/><path class="st1" d="M13 1H6a3 3 0 0 0-3 3v2h2V4a1 1 0 0 1 1-1h5v8.5A1.5 1.5 0 0 1 9.5 13h.5v.938l-.01.014A2.502 2.502 0 0 0 12 11.5V4h3V3a2 2 0 0 0-2-2z"/><path class="st1" d="M9 10.688A3.764 3.764 0 0 0 6 7v1a2.561 2.561 0 0 1 0 5v-1.5l-1 1V15h2.5l1-1H6.981A3.738 3.738 0 0 0 9 10.688z"/></g><path class="st2" d="M6 3a1 1 0 0 0-1 1v2h1.198C8.401 6.447 10 8.43 10 10.688c0 .822-.214 1.611-.601 2.303.034.001.067.009.101.009a1.5 1.5 0 0 0 1.5-1.5V3H6z" id="icon_x5F_fg"/></svg>